<mxfile host="www.draw.io" modified="2019-11-13T06:55:46.518Z" agent="Mozilla/5.0 (X11; Linux x86_64) AppleWebKit/537.36 (KHTML, like Gecko) Chrome/78.0.3904.70 Safari/537.36" etag="mPIsZycrqFsFgx-kd2Ff" version="12.2.4" type="github" pages="1">
  <diagram id="Ot42BxiwF2Md2FBjUppE" name="Page-1">
    <mxGraphModel dx="1211" dy="679" grid="1" gridSize="10" guides="1" tooltips="1" connect="1" arrows="1" fold="1" page="1" pageScale="1" pageWidth="827" pageHeight="1169" math="0" shadow="0">
      <root>
        <mxCell id="0"/>
        <mxCell id="1" parent="0"/>
        <mxCell id="ROQh6i80lznsQgP-dPIk-17" style="edgeStyle=orthogonalEdgeStyle;rounded=0;orthogonalLoop=1;jettySize=auto;html=1;" parent="1" source="ROQh6i80lznsQgP-dPIk-2" target="ROQh6i80lznsQgP-dPIk-14" edge="1">
          <mxGeometry relative="1" as="geometry"/>
        </mxCell>
        <mxCell id="ROQh6i80lznsQgP-dPIk-2" value="Memvalidasi akun" style="rounded=0;whiteSpace=wrap;html=1;" parent="1" vertex="1">
          <mxGeometry x="322.5" y="160" width="115" height="30" as="geometry"/>
        </mxCell>
        <mxCell id="ROQh6i80lznsQgP-dPIk-28" style="edgeStyle=orthogonalEdgeStyle;rounded=0;orthogonalLoop=1;jettySize=auto;html=1;entryX=0.5;entryY=0;entryDx=0;entryDy=0;" parent="1" source="ROQh6i80lznsQgP-dPIk-4" target="ROQh6i80lznsQgP-dPIk-5" edge="1">
          <mxGeometry relative="1" as="geometry"/>
        </mxCell>
        <mxCell id="j0FuVHYEQoq5UPb3pb0h-2" style="edgeStyle=orthogonalEdgeStyle;rounded=0;orthogonalLoop=1;jettySize=auto;html=1;entryX=0.5;entryY=0;entryDx=0;entryDy=0;" edge="1" parent="1" source="ROQh6i80lznsQgP-dPIk-4" target="ROQh6i80lznsQgP-dPIk-29">
          <mxGeometry relative="1" as="geometry"/>
        </mxCell>
        <mxCell id="ROQh6i80lznsQgP-dPIk-4" value="Pilih Fitur Live" style="rhombus;whiteSpace=wrap;html=1;" parent="1" vertex="1">
          <mxGeometry x="310" y="440" width="140" height="60" as="geometry"/>
        </mxCell>
        <mxCell id="j0FuVHYEQoq5UPb3pb0h-4" style="edgeStyle=orthogonalEdgeStyle;rounded=0;orthogonalLoop=1;jettySize=auto;html=1;entryX=0.25;entryY=0;entryDx=0;entryDy=0;" edge="1" parent="1" source="ROQh6i80lznsQgP-dPIk-5" target="ROQh6i80lznsQgP-dPIk-39">
          <mxGeometry relative="1" as="geometry">
            <Array as="points">
              <mxPoint x="380" y="620"/>
              <mxPoint x="453" y="620"/>
            </Array>
          </mxGeometry>
        </mxCell>
        <mxCell id="ROQh6i80lznsQgP-dPIk-5" value="Menampilkan streaming kamera" style="rounded=0;whiteSpace=wrap;html=1;" parent="1" vertex="1">
          <mxGeometry x="320" y="530" width="120" height="60" as="geometry"/>
        </mxCell>
        <mxCell id="j0FuVHYEQoq5UPb3pb0h-5" style="edgeStyle=orthogonalEdgeStyle;rounded=0;orthogonalLoop=1;jettySize=auto;html=1;" edge="1" parent="1" source="ROQh6i80lznsQgP-dPIk-7" target="j0FuVHYEQoq5UPb3pb0h-1">
          <mxGeometry relative="1" as="geometry"/>
        </mxCell>
        <mxCell id="ROQh6i80lznsQgP-dPIk-7" value="Menampilkan recording kamera" style="rounded=0;whiteSpace=wrap;html=1;" parent="1" vertex="1">
          <mxGeometry x="520" y="459" width="120" height="50" as="geometry"/>
        </mxCell>
        <mxCell id="ROQh6i80lznsQgP-dPIk-37" style="edgeStyle=orthogonalEdgeStyle;rounded=0;orthogonalLoop=1;jettySize=auto;html=1;entryX=0.5;entryY=0;entryDx=0;entryDy=0;fontSize=11;" parent="1" source="ROQh6i80lznsQgP-dPIk-10" target="ROQh6i80lznsQgP-dPIk-30" edge="1">
          <mxGeometry relative="1" as="geometry"/>
        </mxCell>
        <mxCell id="ROQh6i80lznsQgP-dPIk-10" value="Memfilter berdasarkan tanggal" style="rounded=0;whiteSpace=wrap;html=1;" parent="1" vertex="1">
          <mxGeometry x="505" y="326" width="150" height="40" as="geometry"/>
        </mxCell>
        <mxCell id="ROQh6i80lznsQgP-dPIk-16" style="edgeStyle=orthogonalEdgeStyle;rounded=0;orthogonalLoop=1;jettySize=auto;html=1;entryX=0.5;entryY=0;entryDx=0;entryDy=0;" parent="1" source="ROQh6i80lznsQgP-dPIk-12" target="ROQh6i80lznsQgP-dPIk-2" edge="1">
          <mxGeometry relative="1" as="geometry"/>
        </mxCell>
        <mxCell id="ROQh6i80lznsQgP-dPIk-12" value="User memasukkan &lt;br&gt;username &amp;amp; password" style="shape=parallelogram;perimeter=parallelogramPerimeter;whiteSpace=wrap;html=1;" parent="1" vertex="1">
          <mxGeometry x="282.5" y="70" width="195" height="60" as="geometry"/>
        </mxCell>
        <mxCell id="j0FuVHYEQoq5UPb3pb0h-14" style="edgeStyle=orthogonalEdgeStyle;rounded=0;orthogonalLoop=1;jettySize=auto;html=1;entryX=0.5;entryY=0;entryDx=0;entryDy=0;" edge="1" parent="1" source="ROQh6i80lznsQgP-dPIk-13" target="ROQh6i80lznsQgP-dPIk-12">
          <mxGeometry relative="1" as="geometry"/>
        </mxCell>
        <mxCell id="ROQh6i80lznsQgP-dPIk-13" value="Mulai" style="rounded=1;whiteSpace=wrap;html=1;glass=0;arcSize=45;" parent="1" vertex="1">
          <mxGeometry x="345" y="20" width="70" height="30" as="geometry"/>
        </mxCell>
        <mxCell id="ROQh6i80lznsQgP-dPIk-20" style="edgeStyle=orthogonalEdgeStyle;rounded=0;orthogonalLoop=1;jettySize=auto;html=1;entryX=0.5;entryY=0;entryDx=0;entryDy=0;" parent="1" source="ROQh6i80lznsQgP-dPIk-14" target="ROQh6i80lznsQgP-dPIk-19" edge="1">
          <mxGeometry relative="1" as="geometry"/>
        </mxCell>
        <mxCell id="j0FuVHYEQoq5UPb3pb0h-13" style="edgeStyle=orthogonalEdgeStyle;rounded=0;orthogonalLoop=1;jettySize=auto;html=1;entryX=0;entryY=0.5;entryDx=0;entryDy=0;" edge="1" parent="1" source="ROQh6i80lznsQgP-dPIk-14" target="ROQh6i80lznsQgP-dPIk-12">
          <mxGeometry relative="1" as="geometry">
            <Array as="points">
              <mxPoint x="280" y="240"/>
              <mxPoint x="280" y="100"/>
            </Array>
          </mxGeometry>
        </mxCell>
        <mxCell id="ROQh6i80lznsQgP-dPIk-14" value="Jika akun terdaftar" style="rhombus;whiteSpace=wrap;html=1;" parent="1" vertex="1">
          <mxGeometry x="310" y="210" width="140" height="60" as="geometry"/>
        </mxCell>
        <mxCell id="ROQh6i80lznsQgP-dPIk-25" style="edgeStyle=orthogonalEdgeStyle;rounded=0;orthogonalLoop=1;jettySize=auto;html=1;entryX=0.5;entryY=0;entryDx=0;entryDy=0;" parent="1" source="ROQh6i80lznsQgP-dPIk-18" target="ROQh6i80lznsQgP-dPIk-4" edge="1">
          <mxGeometry relative="1" as="geometry"/>
        </mxCell>
        <mxCell id="ROQh6i80lznsQgP-dPIk-18" value="User Memilih fitur Live/Recording" style="shape=parallelogram;perimeter=parallelogramPerimeter;whiteSpace=wrap;html=1;" parent="1" vertex="1">
          <mxGeometry x="300" y="367.5" width="160" height="45" as="geometry"/>
        </mxCell>
        <mxCell id="ROQh6i80lznsQgP-dPIk-27" style="edgeStyle=orthogonalEdgeStyle;rounded=0;orthogonalLoop=1;jettySize=auto;html=1;entryX=0.5;entryY=0;entryDx=0;entryDy=0;" parent="1" source="ROQh6i80lznsQgP-dPIk-19" target="ROQh6i80lznsQgP-dPIk-18" edge="1">
          <mxGeometry relative="1" as="geometry"/>
        </mxCell>
        <mxCell id="ROQh6i80lznsQgP-dPIk-19" value="Masuk ke dashboard" style="rounded=0;whiteSpace=wrap;html=1;" parent="1" vertex="1">
          <mxGeometry x="320" y="300" width="120" height="40" as="geometry"/>
        </mxCell>
        <mxCell id="ROQh6i80lznsQgP-dPIk-21" value="Ya" style="text;html=1;resizable=0;points=[];autosize=1;align=left;verticalAlign=top;spacingTop=-4;" parent="1" vertex="1">
          <mxGeometry x="383" y="270" width="30" height="20" as="geometry"/>
        </mxCell>
        <mxCell id="ROQh6i80lznsQgP-dPIk-22" value="Tidak" style="text;html=1;resizable=0;points=[];autosize=1;align=left;verticalAlign=top;spacingTop=-4;" parent="1" vertex="1">
          <mxGeometry x="282.5" y="220" width="40" height="20" as="geometry"/>
        </mxCell>
        <mxCell id="ROQh6i80lznsQgP-dPIk-36" style="edgeStyle=orthogonalEdgeStyle;rounded=0;orthogonalLoop=1;jettySize=auto;html=1;entryX=0.5;entryY=0;entryDx=0;entryDy=0;fontSize=11;" parent="1" source="ROQh6i80lznsQgP-dPIk-29" target="ROQh6i80lznsQgP-dPIk-10" edge="1">
          <mxGeometry relative="1" as="geometry"/>
        </mxCell>
        <mxCell id="ROQh6i80lznsQgP-dPIk-29" value="User Memilih tanggal" style="shape=parallelogram;perimeter=parallelogramPerimeter;whiteSpace=wrap;html=1;" parent="1" vertex="1">
          <mxGeometry x="500" y="270" width="160" height="33" as="geometry"/>
        </mxCell>
        <mxCell id="ROQh6i80lznsQgP-dPIk-38" style="edgeStyle=orthogonalEdgeStyle;rounded=0;orthogonalLoop=1;jettySize=auto;html=1;entryX=0.5;entryY=0;entryDx=0;entryDy=0;fontSize=11;" parent="1" source="ROQh6i80lznsQgP-dPIk-30" target="ROQh6i80lznsQgP-dPIk-7" edge="1">
          <mxGeometry relative="1" as="geometry"/>
        </mxCell>
        <mxCell id="ROQh6i80lznsQgP-dPIk-30" value="Pilih rekaman pada tanggal tertentu" style="shape=parallelogram;perimeter=parallelogramPerimeter;whiteSpace=wrap;html=1;fontSize=11;align=center;" parent="1" vertex="1">
          <mxGeometry x="515" y="389" width="130" height="50" as="geometry"/>
        </mxCell>
        <mxCell id="ROQh6i80lznsQgP-dPIk-34" value="Tidak" style="text;html=1;resizable=0;points=[];autosize=1;align=left;verticalAlign=top;spacingTop=-4;" parent="1" vertex="1">
          <mxGeometry x="440" y="450" width="40" height="20" as="geometry"/>
        </mxCell>
        <mxCell id="ROQh6i80lznsQgP-dPIk-35" value="Ya" style="text;html=1;resizable=0;points=[];autosize=1;align=left;verticalAlign=top;spacingTop=-4;" parent="1" vertex="1">
          <mxGeometry x="380" y="500" width="30" height="20" as="geometry"/>
        </mxCell>
        <mxCell id="ROQh6i80lznsQgP-dPIk-39" value="Selesai" style="rounded=1;whiteSpace=wrap;html=1;glass=0;arcSize=45;" parent="1" vertex="1">
          <mxGeometry x="435" y="640" width="70" height="30" as="geometry"/>
        </mxCell>
        <mxCell id="j0FuVHYEQoq5UPb3pb0h-3" style="edgeStyle=orthogonalEdgeStyle;rounded=0;orthogonalLoop=1;jettySize=auto;html=1;entryX=0.75;entryY=0;entryDx=0;entryDy=0;" edge="1" parent="1" source="j0FuVHYEQoq5UPb3pb0h-1" target="ROQh6i80lznsQgP-dPIk-39">
          <mxGeometry relative="1" as="geometry">
            <Array as="points">
              <mxPoint x="580" y="620"/>
              <mxPoint x="487" y="620"/>
            </Array>
          </mxGeometry>
        </mxCell>
        <mxCell id="j0FuVHYEQoq5UPb3pb0h-11" style="edgeStyle=orthogonalEdgeStyle;rounded=0;orthogonalLoop=1;jettySize=auto;html=1;entryX=1;entryY=0.5;entryDx=0;entryDy=0;" edge="1" parent="1" source="j0FuVHYEQoq5UPb3pb0h-1" target="ROQh6i80lznsQgP-dPIk-29">
          <mxGeometry relative="1" as="geometry">
            <mxPoint x="730" y="380" as="targetPoint"/>
            <Array as="points">
              <mxPoint x="680" y="570"/>
              <mxPoint x="680" y="287"/>
            </Array>
          </mxGeometry>
        </mxCell>
        <mxCell id="j0FuVHYEQoq5UPb3pb0h-1" value="Memilih tanggal lain" style="rhombus;whiteSpace=wrap;html=1;" vertex="1" parent="1">
          <mxGeometry x="510" y="540" width="140" height="60" as="geometry"/>
        </mxCell>
        <mxCell id="j0FuVHYEQoq5UPb3pb0h-7" value="Tidak" style="text;html=1;resizable=0;points=[];autosize=1;align=left;verticalAlign=top;spacingTop=-4;" vertex="1" parent="1">
          <mxGeometry x="644" y="552" width="40" height="20" as="geometry"/>
        </mxCell>
        <mxCell id="j0FuVHYEQoq5UPb3pb0h-10" value="Ya" style="text;html=1;resizable=0;points=[];autosize=1;align=left;verticalAlign=top;spacingTop=-4;" vertex="1" parent="1">
          <mxGeometry x="590" y="600" width="30" height="20" as="geometry"/>
        </mxCell>
      </root>
    </mxGraphModel>
  </diagram>
</mxfile>
